<svg width="240" height="240" viewBox="-60 0 360 240" xmlns="http://www.w3.org/2000/svg">
  <circle fill="#8a9298" cx="180" cy="120" r="40"/>
  <path d="M71.308,0 L136.942,0 C138.047,0 138.942,0.895 138.942,2 C138.942,2.276 138.885,2.549 138.774,2.802 L70.524,158.802 C70.206,159.530 69.487,160 68.692,160 L3.058,160 C1.953,160 1.058,159.105 1.058,158 C1.058,157.724 1.115,157.451 1.226,157.198 L69.476,1.198 C69.794,0.470 70.513,0 71.308,0 Z" fill="#722f37"/>
  <path d="M291.308,80 L356.942,80 C358.047,80 358.942,80.895 358.942,82 C358.942,82.276 358.885,82.549 358.774,82.802 L290.524,238.802 C290.206,239.530 289.487,240 288.692,240 L223.058,240 C221.953,240 221.058,239.105 221.058,238 C221.058,237.724 221.115,237.451 221.226,237.198 L289.476,81.198 C289.794,80.470 290.513,80 291.308,80 Z" fill="#8b3a44"/>
</svg>
