<?xml version="1.0" encoding="UTF-8"?>
<svg width="360px" height="240px" viewBox="0 0 360 240" version="1.1" xmlns="http://www.w3.org/2000/svg" xmlns:xlink="http://www.w3.org/1999/xlink">
    <title>Glyph-Light</title>
    <defs>
        <path d="M0,0 L360,0 L360,240 L0,240 L0,0 Z" id="path-1"></path>
    </defs>
    <g id="Logo" stroke="none" stroke-width="1" fill="none" fill-rule="evenodd">
        <g id="Glyph-Light" xlink:href="#path-1">
            <circle id="Oval-Copy" fill="color(display-p3 0.239 0.310 0.373)" cx="180" cy="120" r="40"></circle>
            <path d="M71.3080311,0 L136.941969,-1.17683641e-14 C138.046538,-1.17683641e-14 138.941969,0.8954305 138.941969,2 C138.941969,2.27591867 138.884877,2.54885275 138.774284,2.80163767 L70.5242835,158.801638 C70.2057946,159.529612 69.4865645,160 68.6919689,160 L3.05803115,160 C1.95346165,160 1.05803115,159.104569 1.05803115,158 C1.05803115,157.724081 1.11512308,157.451147 1.22571648,157.198362 L69.4757165,1.19836233 C69.7942054,0.47038768 70.5134355,-5.99520433e-15 71.3080311,-6.21724894e-15 Z" id="Rectangle" fill="color(display-p3 0.447 0.184 0.216)"></path>
            <path d="M291.308031,80 L356.941969,80 C358.046538,80 358.941969,80.8954305 358.941969,82 C358.941969,82.2759187 358.884877,82.5488528 358.774284,82.8016377 L290.524284,238.801638 C290.205795,239.529612 289.486565,240 288.691969,240 L223.058031,240 C221.953462,240 221.058031,239.104569 221.058031,238 C221.058031,237.724081 221.115123,237.451147 221.225716,237.198362 L289.475716,81.1983623 C289.794205,80.4703877 290.513435,80 291.308031,80 Z" id="Rectangle-Copy" fill="color(display-p3 0.545 0.227 0.267)"></path>
        </g>
    </g>
</svg>